<mxfile host="app.diagrams.net" modified="2024-01-26T14:38:03.248Z" agent="Mozilla/5.0 (Windows NT 10.0; Win64; x64) AppleWebKit/537.36 (KHTML, like Gecko) Chrome/120.0.0.0 Safari/537.36 Edg/120.0.0.0" etag="Bs7flIJ4JZT0RzjPpfZ-" version="23.0.2" type="device">
  <diagram name="Page-1" id="XOcXq9SsS1-s6shH3Gwk">
    <mxGraphModel dx="2226" dy="1185" grid="0" gridSize="10" guides="1" tooltips="1" connect="1" arrows="1" fold="1" page="0" pageScale="1" pageWidth="850" pageHeight="1100" math="0" shadow="0">
      <root>
        <mxCell id="0" />
        <mxCell id="1" parent="0" />
        <mxCell id="H6qbJbh3TYkRF4y8U9q_-1" value="Books" style="whiteSpace=wrap;html=1;aspect=fixed;" vertex="1" parent="1">
          <mxGeometry x="454" y="334" width="80" height="80" as="geometry" />
        </mxCell>
        <mxCell id="H6qbJbh3TYkRF4y8U9q_-4" value="Readers" style="whiteSpace=wrap;html=1;aspect=fixed;" vertex="1" parent="1">
          <mxGeometry x="-90" y="397" width="80" height="80" as="geometry" />
        </mxCell>
        <mxCell id="H6qbJbh3TYkRF4y8U9q_-5" value="Staff" style="whiteSpace=wrap;html=1;aspect=fixed;" vertex="1" parent="1">
          <mxGeometry x="-98" y="147.5" width="80" height="80" as="geometry" />
        </mxCell>
        <mxCell id="H6qbJbh3TYkRF4y8U9q_-6" value="Reports" style="whiteSpace=wrap;html=1;aspect=fixed;" vertex="1" parent="1">
          <mxGeometry x="-84.25" y="-76" width="68.5" height="68.5" as="geometry" />
        </mxCell>
        <mxCell id="H6qbJbh3TYkRF4y8U9q_-7" value="Authentication System" style="whiteSpace=wrap;html=1;aspect=fixed;" vertex="1" parent="1">
          <mxGeometry x="358" y="-70" width="80" height="80" as="geometry" />
        </mxCell>
        <mxCell id="H6qbJbh3TYkRF4y8U9q_-8" value="Publisher" style="whiteSpace=wrap;html=1;aspect=fixed;" vertex="1" parent="1">
          <mxGeometry x="565" y="16" width="80" height="80" as="geometry" />
        </mxCell>
        <mxCell id="H6qbJbh3TYkRF4y8U9q_-9" value="User_id" style="ellipse;whiteSpace=wrap;html=1;" vertex="1" parent="1">
          <mxGeometry x="-60" y="-193" width="120" height="80" as="geometry" />
        </mxCell>
        <mxCell id="H6qbJbh3TYkRF4y8U9q_-10" value="Book_no" style="ellipse;whiteSpace=wrap;html=1;" vertex="1" parent="1">
          <mxGeometry x="-355" y="-138" width="120" height="80" as="geometry" />
        </mxCell>
        <mxCell id="H6qbJbh3TYkRF4y8U9q_-11" value="Reg_no" style="ellipse;whiteSpace=wrap;html=1;" vertex="1" parent="1">
          <mxGeometry x="-237" y="-197" width="120" height="80" as="geometry" />
        </mxCell>
        <mxCell id="H6qbJbh3TYkRF4y8U9q_-12" value="Issue/ Return" style="ellipse;whiteSpace=wrap;html=1;" vertex="1" parent="1">
          <mxGeometry x="-298" y="-42" width="120" height="80" as="geometry" />
        </mxCell>
        <mxCell id="H6qbJbh3TYkRF4y8U9q_-13" value="Staff_id" style="ellipse;whiteSpace=wrap;html=1;" vertex="1" parent="1">
          <mxGeometry x="-332" y="183" width="120" height="80" as="geometry" />
        </mxCell>
        <mxCell id="H6qbJbh3TYkRF4y8U9q_-14" value="name" style="ellipse;whiteSpace=wrap;html=1;" vertex="1" parent="1">
          <mxGeometry x="-334" y="68" width="120" height="80" as="geometry" />
        </mxCell>
        <mxCell id="H6qbJbh3TYkRF4y8U9q_-15" value="Manages" style="rhombus;whiteSpace=wrap;html=1;" vertex="1" parent="1">
          <mxGeometry x="-107" y="30" width="80" height="80" as="geometry" />
        </mxCell>
        <mxCell id="H6qbJbh3TYkRF4y8U9q_-16" value="Login" style="rhombus;whiteSpace=wrap;html=1;" vertex="1" parent="1">
          <mxGeometry x="190" y="-23" width="80" height="80" as="geometry" />
        </mxCell>
        <mxCell id="H6qbJbh3TYkRF4y8U9q_-17" value="Publishes" style="rhombus;whiteSpace=wrap;html=1;" vertex="1" parent="1">
          <mxGeometry x="408" y="210" width="80" height="80" as="geometry" />
        </mxCell>
        <mxCell id="H6qbJbh3TYkRF4y8U9q_-18" value="maintain" style="rhombus;whiteSpace=wrap;html=1;" vertex="1" parent="1">
          <mxGeometry x="182" y="148" width="80" height="80" as="geometry" />
        </mxCell>
        <mxCell id="H6qbJbh3TYkRF4y8U9q_-19" value="reserve/ return date" style="rhombus;whiteSpace=wrap;html=1;" vertex="1" parent="1">
          <mxGeometry x="117" y="354" width="131" height="113" as="geometry" />
        </mxCell>
        <mxCell id="H6qbJbh3TYkRF4y8U9q_-20" value="Keep track of" style="rhombus;whiteSpace=wrap;html=1;" vertex="1" parent="1">
          <mxGeometry x="-102" y="263" width="107" height="86" as="geometry" />
        </mxCell>
        <mxCell id="H6qbJbh3TYkRF4y8U9q_-21" value="User _ID" style="ellipse;whiteSpace=wrap;html=1;" vertex="1" parent="1">
          <mxGeometry x="-256" y="309" width="92" height="61" as="geometry" />
        </mxCell>
        <mxCell id="H6qbJbh3TYkRF4y8U9q_-22" value="Email" style="ellipse;whiteSpace=wrap;html=1;" vertex="1" parent="1">
          <mxGeometry x="-403" y="320" width="98" height="55" as="geometry" />
        </mxCell>
        <mxCell id="H6qbJbh3TYkRF4y8U9q_-23" value="name" style="ellipse;whiteSpace=wrap;html=1;" vertex="1" parent="1">
          <mxGeometry x="-382" y="395" width="89" height="60" as="geometry" />
        </mxCell>
        <mxCell id="H6qbJbh3TYkRF4y8U9q_-24" value="Firstname" style="ellipse;whiteSpace=wrap;html=1;" vertex="1" parent="1">
          <mxGeometry x="-495" y="349" width="92" height="67" as="geometry" />
        </mxCell>
        <mxCell id="H6qbJbh3TYkRF4y8U9q_-25" value="lastName" style="ellipse;whiteSpace=wrap;html=1;" vertex="1" parent="1">
          <mxGeometry x="-493" y="464" width="101" height="59" as="geometry" />
        </mxCell>
        <mxCell id="H6qbJbh3TYkRF4y8U9q_-26" value="Phone no" style="ellipse;whiteSpace=wrap;html=1;" vertex="1" parent="1">
          <mxGeometry x="-362" y="493" width="112" height="66" as="geometry" />
        </mxCell>
        <mxCell id="H6qbJbh3TYkRF4y8U9q_-27" value="Address" style="ellipse;whiteSpace=wrap;html=1;" vertex="1" parent="1">
          <mxGeometry x="-208" y="488" width="107" height="63" as="geometry" />
        </mxCell>
        <mxCell id="H6qbJbh3TYkRF4y8U9q_-28" value="ReserveDate" style="ellipse;whiteSpace=wrap;html=1;" vertex="1" parent="1">
          <mxGeometry x="89" y="254" width="120" height="80" as="geometry" />
        </mxCell>
        <mxCell id="H6qbJbh3TYkRF4y8U9q_-29" value="return date" style="ellipse;whiteSpace=wrap;html=1;" vertex="1" parent="1">
          <mxGeometry x="108" y="505" width="110" height="70.5" as="geometry" />
        </mxCell>
        <mxCell id="H6qbJbh3TYkRF4y8U9q_-30" value="Due date" style="ellipse;whiteSpace=wrap;html=1;" vertex="1" parent="1">
          <mxGeometry x="272" y="455" width="99" height="54" as="geometry" />
        </mxCell>
        <mxCell id="H6qbJbh3TYkRF4y8U9q_-31" value="AuthNo" style="ellipse;whiteSpace=wrap;html=1;" vertex="1" parent="1">
          <mxGeometry x="470" y="479" width="107" height="70" as="geometry" />
        </mxCell>
        <mxCell id="H6qbJbh3TYkRF4y8U9q_-32" value="ISBN" style="ellipse;whiteSpace=wrap;html=1;" vertex="1" parent="1">
          <mxGeometry x="617" y="433" width="109" height="67" as="geometry" />
        </mxCell>
        <mxCell id="H6qbJbh3TYkRF4y8U9q_-33" value="Title" style="ellipse;whiteSpace=wrap;html=1;" vertex="1" parent="1">
          <mxGeometry x="720" y="384" width="90" height="62" as="geometry" />
        </mxCell>
        <mxCell id="H6qbJbh3TYkRF4y8U9q_-34" value="Editon" style="ellipse;whiteSpace=wrap;html=1;" vertex="1" parent="1">
          <mxGeometry x="736" y="302" width="104" height="66" as="geometry" />
        </mxCell>
        <mxCell id="H6qbJbh3TYkRF4y8U9q_-35" value="Category" style="ellipse;whiteSpace=wrap;html=1;" vertex="1" parent="1">
          <mxGeometry x="692" y="234" width="91" height="59.5" as="geometry" />
        </mxCell>
        <mxCell id="H6qbJbh3TYkRF4y8U9q_-36" value="Price" style="ellipse;whiteSpace=wrap;html=1;" vertex="1" parent="1">
          <mxGeometry x="703" y="163.5" width="88" height="64" as="geometry" />
        </mxCell>
        <mxCell id="H6qbJbh3TYkRF4y8U9q_-37" value="name" style="ellipse;whiteSpace=wrap;html=1;" vertex="1" parent="1">
          <mxGeometry x="789" y="68" width="84" height="62" as="geometry" />
        </mxCell>
        <mxCell id="H6qbJbh3TYkRF4y8U9q_-38" value="YearOfPublication" style="ellipse;whiteSpace=wrap;html=1;" vertex="1" parent="1">
          <mxGeometry x="720" y="-50" width="120" height="80" as="geometry" />
        </mxCell>
        <mxCell id="H6qbJbh3TYkRF4y8U9q_-39" value="Publisher_id" style="ellipse;whiteSpace=wrap;html=1;" vertex="1" parent="1">
          <mxGeometry x="671" y="-140" width="120" height="80" as="geometry" />
        </mxCell>
        <mxCell id="H6qbJbh3TYkRF4y8U9q_-40" value="Loginid" style="ellipse;whiteSpace=wrap;html=1;" vertex="1" parent="1">
          <mxGeometry x="443" y="-186" width="120" height="80" as="geometry" />
        </mxCell>
        <mxCell id="H6qbJbh3TYkRF4y8U9q_-41" value="Password" style="ellipse;whiteSpace=wrap;html=1;" vertex="1" parent="1">
          <mxGeometry x="281" y="-186" width="120" height="80" as="geometry" />
        </mxCell>
        <mxCell id="H6qbJbh3TYkRF4y8U9q_-42" value="" style="endArrow=none;html=1;rounded=0;entryX=0.358;entryY=0.963;entryDx=0;entryDy=0;entryPerimeter=0;exitX=0.638;exitY=0;exitDx=0;exitDy=0;exitPerimeter=0;" edge="1" parent="1" source="H6qbJbh3TYkRF4y8U9q_-6" target="H6qbJbh3TYkRF4y8U9q_-9">
          <mxGeometry width="50" height="50" relative="1" as="geometry">
            <mxPoint x="-58" y="-90" as="sourcePoint" />
            <mxPoint x="-18" y="-127" as="targetPoint" />
          </mxGeometry>
        </mxCell>
        <mxCell id="H6qbJbh3TYkRF4y8U9q_-43" value="" style="endArrow=none;html=1;rounded=0;" edge="1" parent="1" source="H6qbJbh3TYkRF4y8U9q_-12" target="H6qbJbh3TYkRF4y8U9q_-6">
          <mxGeometry width="50" height="50" relative="1" as="geometry">
            <mxPoint x="176" y="225" as="sourcePoint" />
            <mxPoint x="226" y="175" as="targetPoint" />
          </mxGeometry>
        </mxCell>
        <mxCell id="H6qbJbh3TYkRF4y8U9q_-44" value="" style="endArrow=none;html=1;rounded=0;exitX=1;exitY=0.588;exitDx=0;exitDy=0;exitPerimeter=0;entryX=0;entryY=0.25;entryDx=0;entryDy=0;" edge="1" parent="1" source="H6qbJbh3TYkRF4y8U9q_-10" target="H6qbJbh3TYkRF4y8U9q_-6">
          <mxGeometry width="50" height="50" relative="1" as="geometry">
            <mxPoint x="176" y="225" as="sourcePoint" />
            <mxPoint x="226" y="175" as="targetPoint" />
          </mxGeometry>
        </mxCell>
        <mxCell id="H6qbJbh3TYkRF4y8U9q_-45" value="" style="endArrow=none;html=1;rounded=0;" edge="1" parent="1" source="H6qbJbh3TYkRF4y8U9q_-11" target="H6qbJbh3TYkRF4y8U9q_-6">
          <mxGeometry width="50" height="50" relative="1" as="geometry">
            <mxPoint x="-163" y="-117" as="sourcePoint" />
            <mxPoint x="-76" y="-87" as="targetPoint" />
          </mxGeometry>
        </mxCell>
        <mxCell id="H6qbJbh3TYkRF4y8U9q_-46" value="" style="endArrow=none;html=1;rounded=0;exitX=0.5;exitY=1;exitDx=0;exitDy=0;" edge="1" parent="1" source="H6qbJbh3TYkRF4y8U9q_-6" target="H6qbJbh3TYkRF4y8U9q_-15">
          <mxGeometry width="50" height="50" relative="1" as="geometry">
            <mxPoint x="176" y="225" as="sourcePoint" />
            <mxPoint x="226" y="175" as="targetPoint" />
          </mxGeometry>
        </mxCell>
        <mxCell id="H6qbJbh3TYkRF4y8U9q_-87" value="N" style="edgeLabel;html=1;align=center;verticalAlign=middle;resizable=0;points=[];" vertex="1" connectable="0" parent="H6qbJbh3TYkRF4y8U9q_-46">
          <mxGeometry x="0.1074" y="4" relative="1" as="geometry">
            <mxPoint x="7" y="-1" as="offset" />
          </mxGeometry>
        </mxCell>
        <mxCell id="H6qbJbh3TYkRF4y8U9q_-47" value="" style="endArrow=none;html=1;rounded=0;" edge="1" parent="1" source="H6qbJbh3TYkRF4y8U9q_-15" target="H6qbJbh3TYkRF4y8U9q_-5">
          <mxGeometry width="50" height="50" relative="1" as="geometry">
            <mxPoint x="176" y="225" as="sourcePoint" />
            <mxPoint x="226" y="175" as="targetPoint" />
          </mxGeometry>
        </mxCell>
        <mxCell id="H6qbJbh3TYkRF4y8U9q_-88" value="1" style="edgeLabel;html=1;align=center;verticalAlign=middle;resizable=0;points=[];" vertex="1" connectable="0" parent="H6qbJbh3TYkRF4y8U9q_-47">
          <mxGeometry x="-0.4119" relative="1" as="geometry">
            <mxPoint x="8" y="5" as="offset" />
          </mxGeometry>
        </mxCell>
        <mxCell id="H6qbJbh3TYkRF4y8U9q_-49" value="" style="endArrow=none;html=1;rounded=0;" edge="1" parent="1" source="H6qbJbh3TYkRF4y8U9q_-14" target="H6qbJbh3TYkRF4y8U9q_-5">
          <mxGeometry width="50" height="50" relative="1" as="geometry">
            <mxPoint x="176" y="225" as="sourcePoint" />
            <mxPoint x="226" y="175" as="targetPoint" />
          </mxGeometry>
        </mxCell>
        <mxCell id="H6qbJbh3TYkRF4y8U9q_-50" value="" style="endArrow=none;html=1;rounded=0;" edge="1" parent="1" source="H6qbJbh3TYkRF4y8U9q_-13" target="H6qbJbh3TYkRF4y8U9q_-5">
          <mxGeometry width="50" height="50" relative="1" as="geometry">
            <mxPoint x="176" y="225" as="sourcePoint" />
            <mxPoint x="226" y="175" as="targetPoint" />
          </mxGeometry>
        </mxCell>
        <mxCell id="H6qbJbh3TYkRF4y8U9q_-51" value="" style="endArrow=none;html=1;rounded=0;exitX=0.5;exitY=1;exitDx=0;exitDy=0;entryX=0.626;entryY=0.116;entryDx=0;entryDy=0;entryPerimeter=0;" edge="1" parent="1" source="H6qbJbh3TYkRF4y8U9q_-5" target="H6qbJbh3TYkRF4y8U9q_-20">
          <mxGeometry width="50" height="50" relative="1" as="geometry">
            <mxPoint x="176" y="225" as="sourcePoint" />
            <mxPoint x="226" y="175" as="targetPoint" />
          </mxGeometry>
        </mxCell>
        <mxCell id="H6qbJbh3TYkRF4y8U9q_-89" value="N" style="edgeLabel;html=1;align=center;verticalAlign=middle;resizable=0;points=[];" vertex="1" connectable="0" parent="H6qbJbh3TYkRF4y8U9q_-51">
          <mxGeometry x="-0.0694" y="1" relative="1" as="geometry">
            <mxPoint x="12" y="2" as="offset" />
          </mxGeometry>
        </mxCell>
        <mxCell id="H6qbJbh3TYkRF4y8U9q_-52" value="" style="endArrow=none;html=1;rounded=0;" edge="1" parent="1" source="H6qbJbh3TYkRF4y8U9q_-24" target="H6qbJbh3TYkRF4y8U9q_-23">
          <mxGeometry width="50" height="50" relative="1" as="geometry">
            <mxPoint x="176" y="225" as="sourcePoint" />
            <mxPoint x="226" y="175" as="targetPoint" />
          </mxGeometry>
        </mxCell>
        <mxCell id="H6qbJbh3TYkRF4y8U9q_-56" value="" style="endArrow=none;html=1;rounded=0;exitX=1;exitY=0;exitDx=0;exitDy=0;" edge="1" parent="1" source="H6qbJbh3TYkRF4y8U9q_-25" target="H6qbJbh3TYkRF4y8U9q_-23">
          <mxGeometry width="50" height="50" relative="1" as="geometry">
            <mxPoint x="104" y="256" as="sourcePoint" />
            <mxPoint x="154" y="206" as="targetPoint" />
          </mxGeometry>
        </mxCell>
        <mxCell id="H6qbJbh3TYkRF4y8U9q_-57" value="" style="endArrow=none;html=1;rounded=0;exitX=1;exitY=0.5;exitDx=0;exitDy=0;" edge="1" parent="1" source="H6qbJbh3TYkRF4y8U9q_-23" target="H6qbJbh3TYkRF4y8U9q_-4">
          <mxGeometry width="50" height="50" relative="1" as="geometry">
            <mxPoint x="104" y="256" as="sourcePoint" />
            <mxPoint x="154" y="206" as="targetPoint" />
          </mxGeometry>
        </mxCell>
        <mxCell id="H6qbJbh3TYkRF4y8U9q_-58" value="" style="endArrow=none;html=1;rounded=0;" edge="1" parent="1" source="H6qbJbh3TYkRF4y8U9q_-22" target="H6qbJbh3TYkRF4y8U9q_-4">
          <mxGeometry width="50" height="50" relative="1" as="geometry">
            <mxPoint x="104" y="256" as="sourcePoint" />
            <mxPoint x="154" y="206" as="targetPoint" />
          </mxGeometry>
        </mxCell>
        <mxCell id="H6qbJbh3TYkRF4y8U9q_-59" value="" style="endArrow=none;html=1;rounded=0;" edge="1" parent="1" source="H6qbJbh3TYkRF4y8U9q_-21" target="H6qbJbh3TYkRF4y8U9q_-4">
          <mxGeometry width="50" height="50" relative="1" as="geometry">
            <mxPoint x="114" y="266" as="sourcePoint" />
            <mxPoint x="164" y="216" as="targetPoint" />
          </mxGeometry>
        </mxCell>
        <mxCell id="H6qbJbh3TYkRF4y8U9q_-60" value="" style="endArrow=none;html=1;rounded=0;" edge="1" parent="1" source="H6qbJbh3TYkRF4y8U9q_-27" target="H6qbJbh3TYkRF4y8U9q_-4">
          <mxGeometry width="50" height="50" relative="1" as="geometry">
            <mxPoint x="124" y="276" as="sourcePoint" />
            <mxPoint x="174" y="226" as="targetPoint" />
          </mxGeometry>
        </mxCell>
        <mxCell id="H6qbJbh3TYkRF4y8U9q_-61" value="" style="endArrow=none;html=1;rounded=0;" edge="1" parent="1" source="H6qbJbh3TYkRF4y8U9q_-26" target="H6qbJbh3TYkRF4y8U9q_-4">
          <mxGeometry width="50" height="50" relative="1" as="geometry">
            <mxPoint x="134" y="286" as="sourcePoint" />
            <mxPoint x="184" y="236" as="targetPoint" />
          </mxGeometry>
        </mxCell>
        <mxCell id="H6qbJbh3TYkRF4y8U9q_-62" value="" style="endArrow=none;html=1;rounded=0;entryX=0.5;entryY=0;entryDx=0;entryDy=0;" edge="1" parent="1" source="H6qbJbh3TYkRF4y8U9q_-20" target="H6qbJbh3TYkRF4y8U9q_-4">
          <mxGeometry width="50" height="50" relative="1" as="geometry">
            <mxPoint x="104" y="256" as="sourcePoint" />
            <mxPoint x="154" y="206" as="targetPoint" />
          </mxGeometry>
        </mxCell>
        <mxCell id="H6qbJbh3TYkRF4y8U9q_-90" value="N" style="edgeLabel;html=1;align=center;verticalAlign=middle;resizable=0;points=[];" vertex="1" connectable="0" parent="H6qbJbh3TYkRF4y8U9q_-62">
          <mxGeometry x="-0.1556" y="4" relative="1" as="geometry">
            <mxPoint x="11" y="5" as="offset" />
          </mxGeometry>
        </mxCell>
        <mxCell id="H6qbJbh3TYkRF4y8U9q_-63" value="" style="endArrow=none;html=1;rounded=0;" edge="1" parent="1" source="H6qbJbh3TYkRF4y8U9q_-4" target="H6qbJbh3TYkRF4y8U9q_-19">
          <mxGeometry width="50" height="50" relative="1" as="geometry">
            <mxPoint x="144" y="296" as="sourcePoint" />
            <mxPoint x="194" y="246" as="targetPoint" />
          </mxGeometry>
        </mxCell>
        <mxCell id="H6qbJbh3TYkRF4y8U9q_-91" value="1" style="edgeLabel;html=1;align=center;verticalAlign=middle;resizable=0;points=[];" vertex="1" connectable="0" parent="H6qbJbh3TYkRF4y8U9q_-63">
          <mxGeometry x="0.0259" y="1" relative="1" as="geometry">
            <mxPoint x="1" y="-10" as="offset" />
          </mxGeometry>
        </mxCell>
        <mxCell id="H6qbJbh3TYkRF4y8U9q_-64" value="" style="endArrow=none;html=1;rounded=0;" edge="1" parent="1" source="H6qbJbh3TYkRF4y8U9q_-19" target="H6qbJbh3TYkRF4y8U9q_-1">
          <mxGeometry width="50" height="50" relative="1" as="geometry">
            <mxPoint x="154" y="306" as="sourcePoint" />
            <mxPoint x="204" y="256" as="targetPoint" />
          </mxGeometry>
        </mxCell>
        <mxCell id="H6qbJbh3TYkRF4y8U9q_-92" value="N" style="edgeLabel;html=1;align=center;verticalAlign=middle;resizable=0;points=[];" vertex="1" connectable="0" parent="H6qbJbh3TYkRF4y8U9q_-64">
          <mxGeometry x="-0.064" y="2" relative="1" as="geometry">
            <mxPoint x="-3" y="-10" as="offset" />
          </mxGeometry>
        </mxCell>
        <mxCell id="H6qbJbh3TYkRF4y8U9q_-66" value="" style="endArrow=none;html=1;rounded=0;" edge="1" parent="1" source="H6qbJbh3TYkRF4y8U9q_-29" target="H6qbJbh3TYkRF4y8U9q_-19">
          <mxGeometry width="50" height="50" relative="1" as="geometry">
            <mxPoint x="174" y="326" as="sourcePoint" />
            <mxPoint x="224" y="276" as="targetPoint" />
          </mxGeometry>
        </mxCell>
        <mxCell id="H6qbJbh3TYkRF4y8U9q_-67" value="" style="endArrow=none;html=1;rounded=0;" edge="1" parent="1" source="H6qbJbh3TYkRF4y8U9q_-28" target="H6qbJbh3TYkRF4y8U9q_-19">
          <mxGeometry width="50" height="50" relative="1" as="geometry">
            <mxPoint x="184" y="336" as="sourcePoint" />
            <mxPoint x="234" y="286" as="targetPoint" />
          </mxGeometry>
        </mxCell>
        <mxCell id="H6qbJbh3TYkRF4y8U9q_-68" value="" style="endArrow=none;html=1;rounded=0;" edge="1" parent="1" source="H6qbJbh3TYkRF4y8U9q_-5" target="H6qbJbh3TYkRF4y8U9q_-18">
          <mxGeometry width="50" height="50" relative="1" as="geometry">
            <mxPoint x="194" y="346" as="sourcePoint" />
            <mxPoint x="244" y="296" as="targetPoint" />
          </mxGeometry>
        </mxCell>
        <mxCell id="H6qbJbh3TYkRF4y8U9q_-94" value="1" style="edgeLabel;html=1;align=center;verticalAlign=middle;resizable=0;points=[];" vertex="1" connectable="0" parent="H6qbJbh3TYkRF4y8U9q_-68">
          <mxGeometry x="-0.0703" y="-2" relative="1" as="geometry">
            <mxPoint x="3" y="12" as="offset" />
          </mxGeometry>
        </mxCell>
        <mxCell id="H6qbJbh3TYkRF4y8U9q_-70" value="" style="endArrow=none;html=1;rounded=0;" edge="1" parent="1" source="H6qbJbh3TYkRF4y8U9q_-1" target="H6qbJbh3TYkRF4y8U9q_-18">
          <mxGeometry width="50" height="50" relative="1" as="geometry">
            <mxPoint x="204" y="356" as="sourcePoint" />
            <mxPoint x="254" y="306" as="targetPoint" />
          </mxGeometry>
        </mxCell>
        <mxCell id="H6qbJbh3TYkRF4y8U9q_-93" value="N" style="edgeLabel;html=1;align=center;verticalAlign=middle;resizable=0;points=[];" vertex="1" connectable="0" parent="H6qbJbh3TYkRF4y8U9q_-70">
          <mxGeometry x="-0.0029" y="-3" relative="1" as="geometry">
            <mxPoint x="3" y="-10" as="offset" />
          </mxGeometry>
        </mxCell>
        <mxCell id="H6qbJbh3TYkRF4y8U9q_-71" value="" style="endArrow=none;html=1;rounded=0;" edge="1" parent="1" source="H6qbJbh3TYkRF4y8U9q_-19" target="H6qbJbh3TYkRF4y8U9q_-30">
          <mxGeometry width="50" height="50" relative="1" as="geometry">
            <mxPoint x="214" y="366" as="sourcePoint" />
            <mxPoint x="264" y="316" as="targetPoint" />
          </mxGeometry>
        </mxCell>
        <mxCell id="H6qbJbh3TYkRF4y8U9q_-72" value="" style="endArrow=none;html=1;rounded=0;" edge="1" parent="1" source="H6qbJbh3TYkRF4y8U9q_-1" target="H6qbJbh3TYkRF4y8U9q_-17">
          <mxGeometry width="50" height="50" relative="1" as="geometry">
            <mxPoint x="224" y="376" as="sourcePoint" />
            <mxPoint x="274" y="326" as="targetPoint" />
          </mxGeometry>
        </mxCell>
        <mxCell id="H6qbJbh3TYkRF4y8U9q_-73" value="" style="endArrow=none;html=1;rounded=0;" edge="1" parent="1" source="H6qbJbh3TYkRF4y8U9q_-1" target="H6qbJbh3TYkRF4y8U9q_-31">
          <mxGeometry width="50" height="50" relative="1" as="geometry">
            <mxPoint x="234" y="386" as="sourcePoint" />
            <mxPoint x="284" y="336" as="targetPoint" />
          </mxGeometry>
        </mxCell>
        <mxCell id="H6qbJbh3TYkRF4y8U9q_-74" value="" style="endArrow=none;html=1;rounded=0;" edge="1" parent="1" source="H6qbJbh3TYkRF4y8U9q_-32" target="H6qbJbh3TYkRF4y8U9q_-1">
          <mxGeometry width="50" height="50" relative="1" as="geometry">
            <mxPoint x="244" y="396" as="sourcePoint" />
            <mxPoint x="294" y="346" as="targetPoint" />
          </mxGeometry>
        </mxCell>
        <mxCell id="H6qbJbh3TYkRF4y8U9q_-75" value="" style="endArrow=none;html=1;rounded=0;" edge="1" parent="1" source="H6qbJbh3TYkRF4y8U9q_-33" target="H6qbJbh3TYkRF4y8U9q_-1">
          <mxGeometry width="50" height="50" relative="1" as="geometry">
            <mxPoint x="254" y="406" as="sourcePoint" />
            <mxPoint x="304" y="356" as="targetPoint" />
          </mxGeometry>
        </mxCell>
        <mxCell id="H6qbJbh3TYkRF4y8U9q_-76" value="" style="endArrow=none;html=1;rounded=0;" edge="1" parent="1" source="H6qbJbh3TYkRF4y8U9q_-34" target="H6qbJbh3TYkRF4y8U9q_-1">
          <mxGeometry width="50" height="50" relative="1" as="geometry">
            <mxPoint x="264" y="416" as="sourcePoint" />
            <mxPoint x="314" y="366" as="targetPoint" />
          </mxGeometry>
        </mxCell>
        <mxCell id="H6qbJbh3TYkRF4y8U9q_-77" value="" style="endArrow=none;html=1;rounded=0;" edge="1" parent="1" source="H6qbJbh3TYkRF4y8U9q_-35" target="H6qbJbh3TYkRF4y8U9q_-1">
          <mxGeometry width="50" height="50" relative="1" as="geometry">
            <mxPoint x="274" y="426" as="sourcePoint" />
            <mxPoint x="324" y="376" as="targetPoint" />
          </mxGeometry>
        </mxCell>
        <mxCell id="H6qbJbh3TYkRF4y8U9q_-78" value="" style="endArrow=none;html=1;rounded=0;" edge="1" parent="1" source="H6qbJbh3TYkRF4y8U9q_-36" target="H6qbJbh3TYkRF4y8U9q_-1">
          <mxGeometry width="50" height="50" relative="1" as="geometry">
            <mxPoint x="284" y="436" as="sourcePoint" />
            <mxPoint x="334" y="386" as="targetPoint" />
          </mxGeometry>
        </mxCell>
        <mxCell id="H6qbJbh3TYkRF4y8U9q_-79" value="" style="endArrow=none;html=1;rounded=0;" edge="1" parent="1" source="H6qbJbh3TYkRF4y8U9q_-8" target="H6qbJbh3TYkRF4y8U9q_-17">
          <mxGeometry width="50" height="50" relative="1" as="geometry">
            <mxPoint x="294" y="446" as="sourcePoint" />
            <mxPoint x="344" y="396" as="targetPoint" />
          </mxGeometry>
        </mxCell>
        <mxCell id="H6qbJbh3TYkRF4y8U9q_-80" value="" style="endArrow=none;html=1;rounded=0;" edge="1" parent="1" source="H6qbJbh3TYkRF4y8U9q_-39" target="H6qbJbh3TYkRF4y8U9q_-8">
          <mxGeometry width="50" height="50" relative="1" as="geometry">
            <mxPoint x="304" y="456" as="sourcePoint" />
            <mxPoint x="354" y="406" as="targetPoint" />
          </mxGeometry>
        </mxCell>
        <mxCell id="H6qbJbh3TYkRF4y8U9q_-81" value="" style="endArrow=none;html=1;rounded=0;" edge="1" parent="1" source="H6qbJbh3TYkRF4y8U9q_-8" target="H6qbJbh3TYkRF4y8U9q_-38">
          <mxGeometry width="50" height="50" relative="1" as="geometry">
            <mxPoint x="314" y="466" as="sourcePoint" />
            <mxPoint x="364" y="416" as="targetPoint" />
          </mxGeometry>
        </mxCell>
        <mxCell id="H6qbJbh3TYkRF4y8U9q_-82" value="" style="endArrow=none;html=1;rounded=0;" edge="1" parent="1" source="H6qbJbh3TYkRF4y8U9q_-8" target="H6qbJbh3TYkRF4y8U9q_-37">
          <mxGeometry width="50" height="50" relative="1" as="geometry">
            <mxPoint x="324" y="476" as="sourcePoint" />
            <mxPoint x="374" y="426" as="targetPoint" />
          </mxGeometry>
        </mxCell>
        <mxCell id="H6qbJbh3TYkRF4y8U9q_-83" value="" style="endArrow=none;html=1;rounded=0;" edge="1" parent="1" source="H6qbJbh3TYkRF4y8U9q_-5" target="H6qbJbh3TYkRF4y8U9q_-16">
          <mxGeometry width="50" height="50" relative="1" as="geometry">
            <mxPoint x="334" y="486" as="sourcePoint" />
            <mxPoint x="384" y="436" as="targetPoint" />
          </mxGeometry>
        </mxCell>
        <mxCell id="H6qbJbh3TYkRF4y8U9q_-95" value="N" style="edgeLabel;html=1;align=center;verticalAlign=middle;resizable=0;points=[];" vertex="1" connectable="0" parent="H6qbJbh3TYkRF4y8U9q_-83">
          <mxGeometry x="0.0482" relative="1" as="geometry">
            <mxPoint x="-5" y="-16" as="offset" />
          </mxGeometry>
        </mxCell>
        <mxCell id="H6qbJbh3TYkRF4y8U9q_-84" value="" style="endArrow=none;html=1;rounded=0;" edge="1" parent="1" source="H6qbJbh3TYkRF4y8U9q_-7" target="H6qbJbh3TYkRF4y8U9q_-16">
          <mxGeometry width="50" height="50" relative="1" as="geometry">
            <mxPoint x="344" y="496" as="sourcePoint" />
            <mxPoint x="394" y="446" as="targetPoint" />
          </mxGeometry>
        </mxCell>
        <mxCell id="H6qbJbh3TYkRF4y8U9q_-96" value="1" style="edgeLabel;html=1;align=center;verticalAlign=middle;resizable=0;points=[];" vertex="1" connectable="0" parent="H6qbJbh3TYkRF4y8U9q_-84">
          <mxGeometry x="-0.1153" y="3" relative="1" as="geometry">
            <mxPoint x="-7" y="-14" as="offset" />
          </mxGeometry>
        </mxCell>
        <mxCell id="H6qbJbh3TYkRF4y8U9q_-85" value="" style="endArrow=none;html=1;rounded=0;" edge="1" parent="1" source="H6qbJbh3TYkRF4y8U9q_-7" target="H6qbJbh3TYkRF4y8U9q_-41">
          <mxGeometry width="50" height="50" relative="1" as="geometry">
            <mxPoint x="354" y="506" as="sourcePoint" />
            <mxPoint x="404" y="456" as="targetPoint" />
          </mxGeometry>
        </mxCell>
        <mxCell id="H6qbJbh3TYkRF4y8U9q_-86" value="" style="endArrow=none;html=1;rounded=0;" edge="1" parent="1" source="H6qbJbh3TYkRF4y8U9q_-7" target="H6qbJbh3TYkRF4y8U9q_-40">
          <mxGeometry width="50" height="50" relative="1" as="geometry">
            <mxPoint x="364" y="516" as="sourcePoint" />
            <mxPoint x="414" y="466" as="targetPoint" />
          </mxGeometry>
        </mxCell>
      </root>
    </mxGraphModel>
  </diagram>
</mxfile>
